<svg version="1.1" id="Layer_1" xmlns="http://www.w3.org/2000/svg" x="0" y="0" viewBox="0 0 121.4 121.4" xml:space="preserve"><style>.st1{fill:#fff}.st5{opacity:.8}</style><linearGradient id="SVGID_1_" gradientUnits="userSpaceOnUse" x1="36.955" y1="37.04" x2="84.333" y2="84.417"><stop offset="0" stop-color="#b4d3fd"/><stop offset="1" stop-color="#84b0f3"/></linearGradient><path d="M94.1 60.7c0 1.4-.1 2.8-.2 4.1-2 16.5-16.1 29.4-33.2 29.4S29.5 81.4 27.5 64.8c-.2-1.3-.2-2.7-.2-4.1 0-1.8.1-3.5.4-5.2 2.5-16 16.3-28.3 33-28.3s30.6 12.3 33 28.3c.2 1.7.4 3.4.4 5.2z" fill="url(#SVGID_1_)"/><path class="st1" d="M94.1 60.7c0 1.4-.1 2.8-.2 4.1H27.4c-.2-1.3-.2-2.7-.2-4.1 0-1.8.1-3.5.4-5.2h66.1c.2 1.7.4 3.4.4 5.2z"/><circle class="st1" cx="60.6" cy="60.7" r="17.8"/><linearGradient id="SVGID_2_" gradientUnits="userSpaceOnUse" x1="53.096" y1="53.183" x2="67.657" y2="67.744"><stop offset="0" stop-color="#b4d3fd"/><stop offset="1" stop-color="#84b0f3"/></linearGradient><circle cx="60.6" cy="60.7" r="10.3" fill="url(#SVGID_2_)"/><linearGradient id="SVGID_3_" gradientUnits="userSpaceOnUse" x1="45.071" y1="110.085" x2="79.994" y2="121.499"><stop offset="0" stop-color="#b4d3fd"/><stop offset="1" stop-color="#84b0f3"/></linearGradient><ellipse cx="61" cy="115.3" rx="42.3" ry="6.1" fill="url(#SVGID_3_)"/><linearGradient id="SVGID_4_" gradientUnits="userSpaceOnUse" x1="38.355" y1="112.023" x2="83.655" y2="112.023"><stop offset="0" stop-color="#5985c9"/><stop offset="1" stop-color="#3863ab"/></linearGradient><path d="M83.7 112c0 1.1-10.1 2-22.7 2-12.5 0-22.6-.9-22.6-2s10.1-2 22.6-2c12.5.1 22.7.9 22.7 2z" fill="url(#SVGID_4_)"/><g class="st5"><linearGradient id="SVGID_5_" gradientUnits="userSpaceOnUse" x1="95.571" y1="87.082" x2="115.046" y2="106.557"><stop offset="0" stop-color="#b4d3fd"/><stop offset="1" stop-color="#84b0f3"/></linearGradient><ellipse cx="104.3" cy="95.9" rx="17" ry="2.8" fill="url(#SVGID_5_)"/></g><g class="st5"><linearGradient id="SVGID_6_" gradientUnits="userSpaceOnUse" x1="8.27" y1="87.082" x2="27.744" y2="106.557"><stop offset="0" stop-color="#b4d3fd"/><stop offset="1" stop-color="#84b0f3"/></linearGradient><ellipse cx="17" cy="95.9" rx="17" ry="2.8" fill="url(#SVGID_6_)"/></g><g class="st5"><linearGradient id="SVGID_7_" gradientUnits="userSpaceOnUse" x1="9.008" y1="23.646" x2="24.825" y2="39.462"><stop offset="0" stop-color="#b4d3fd"/><stop offset="1" stop-color="#84b0f3"/></linearGradient><path d="M22.7 38.5H10.5c-.6 0-1.1-.5-1.1-1.1V25.2c0-.6.5-1.1 1.1-1.1h12.2c.6 0 1.1.5 1.1 1.1v12.2c0 .6-.5 1.1-1.1 1.1z" fill="url(#SVGID_7_)"/></g><g class="st5"><linearGradient id="SVGID_8_" gradientUnits="userSpaceOnUse" x1="96.744" y1="-.375" x2="112.561" y2="15.442"><stop offset="0" stop-color="#b4d3fd"/><stop offset="1" stop-color="#84b0f3"/></linearGradient><path d="M110.4 14.4H98.2c-.6 0-1.1-.5-1.1-1.1V1.1c0-.6.5-1.1 1.1-1.1h12.2c.6 0 1.1.5 1.1 1.1v12.2c.1.6-.4 1.1-1.1 1.1z" fill="url(#SVGID_8_)"/></g><linearGradient id="SVGID_9_" gradientUnits="userSpaceOnUse" x1="104.342" y1="43.697" x2="104.342" y2="94.947"><stop offset="0" stop-color="#d5e8fd" stop-opacity="0"/><stop offset="1" stop-color="#7db2fa" stop-opacity=".859"/></linearGradient><path d="M104.3 33.1h-6.1v61s2.7.3 6.1.3c3.4 0 6.1-.3 6.1-.3v-61h-6.1z" fill="url(#SVGID_9_)"/><linearGradient id="SVGID_10_" gradientUnits="userSpaceOnUse" x1="17.041" y1="57.976" x2="17.041" y2="94.805"><stop offset="0" stop-color="#d5e8fd" stop-opacity="0"/><stop offset="1" stop-color="#7db2fa" stop-opacity=".859"/></linearGradient><path d="M17 50.4h-6v43.9s2.7.2 6.1.2c3.4 0 6.1-.2 6.1-.2V50.4H17z" fill="url(#SVGID_10_)"/><g><linearGradient id="SVGID_11_" gradientUnits="userSpaceOnUse" x1="49.177" y1="81.519" x2="73.119" y2="105.46"><stop offset="0" stop-color="#74a2e3"/><stop offset="1" stop-color="#5c8bdb"/></linearGradient><path d="M71.2 105.4H50.5c-1.1 0-1.9-.9-1.9-1.9V82.9c0-1.1.9-1.9 1.9-1.9h20.7c1.1 0 1.9.9 1.9 1.9v20.7c0 1-.9 1.8-1.9 1.8z" fill="url(#SVGID_11_)"/><linearGradient id="SVGID_12_" gradientUnits="userSpaceOnUse" x1="52.507" y1="85.312" x2="70.68" y2="102.475"><stop offset="0" stop-color="#edf8ff"/><stop offset="1" stop-color="#b0d3fc"/></linearGradient><circle cx="60.9" cy="93.2" r="9.1" opacity=".8" fill="url(#SVGID_12_)"/></g><linearGradient id="SVGID_13_" gradientUnits="userSpaceOnUse" x1="61.005" y1="81.413" x2="61.005" y2="118.639"><stop offset="0" stop-color="#d5e8fd" stop-opacity="0"/><stop offset="1" stop-color="#7db2fa" stop-opacity=".859"/></linearGradient><path d="M83.7 71.8V112c0 1.1-10.1 2-22.7 2-12.5 0-22.6-.9-22.6-2V71.8h45.3z" fill="url(#SVGID_13_)"/></svg>