<svg version="1.1" id="Layer_1" xmlns="http://www.w3.org/2000/svg" x="0" y="0" viewBox="0 0 121.4 121.4" xml:space="preserve"><style>.st0{fill:#fff}</style><path class="st0" d="M94.2 61.1c0 1.4-.1 2.7-.3 4.1H27.5c-.2-1.3-.3-2.7-.3-4.1 0-1.7.1-3.5.4-5.1h66.1c.3 1.7.5 3.4.5 5.1z"/><linearGradient id="SVGID_1_" gradientUnits="userSpaceOnUse" x1="36.934" y1="37.353" x2="85.577" y2="85.996"><stop offset="0" stop-color="#b4d3fd"/><stop offset="1" stop-color="#84b0f3"/></linearGradient><ellipse cx="60.7" cy="61.1" rx="33.5" ry="33.5" fill="url(#SVGID_1_)"/><ellipse class="st0" cx="60.7" cy="61.1" rx="17.8" ry="17.8"/><linearGradient id="SVGID_2_" gradientUnits="userSpaceOnUse" x1="53.218" y1="53.637" x2="68.475" y2="68.895"><stop offset="0" stop-color="#b4d3fd"/><stop offset="1" stop-color="#84b0f3"/></linearGradient><path d="M69.7 61.1c0-1 .6-1.9 1.5-2.4.5-.3.8-.9.6-1.4-.1-.4-.3-.8-.5-1.2-.3-.5-.9-.8-1.5-.6-.9.3-2 .1-2.7-.7-.7-.7-1-1.8-.7-2.8.2-.5-.1-1.1-.6-1.4-.4-.2-.8-.4-1.2-.5-.6-.2-1.2.1-1.4.6-.4.9-1.3 1.4-2.4 1.4-1 0-1.9-.6-2.4-1.4-.3-.5-.9-.8-1.5-.6-.4.1-.8.3-1.2.5-.5.3-.8.9-.6 1.4.3.9.1 2-.6 2.8-.7.7-1.8 1-2.8.6-.5-.2-1.2.1-1.4.6-.2.4-.4.8-.5 1.2-.2.6.1 1.2.6 1.4.9.5 1.5 1.4 1.5 2.4s-.6 1.9-1.5 2.4c-.5.3-.8.9-.6 1.4.1.4.3.8.5 1.2.3.5.9.8 1.4.6.9-.3 2-.1 2.8.6.7.7 1 1.8.6 2.8-.2.5.1 1.1.6 1.4.4.2.8.4 1.2.5.6.2 1.2-.1 1.5-.6.4-.9 1.3-1.4 2.4-1.4 1 0 1.9.6 2.4 1.4.3.5.9.8 1.4.6.4-.1.8-.3 1.2-.5.5-.2.8-.9.6-1.4-.3-.9-.1-2 .7-2.8.7-.7 1.8-1 2.7-.7.6.2 1.2-.1 1.5-.6.2-.4.4-.8.5-1.2.2-.6-.1-1.2-.6-1.4-1-.2-1.5-1.1-1.5-2.2zm-9 5.2c-2.8 0-5.2-2.3-5.2-5.1s2.3-5.1 5.2-5.1c2.9 0 5.2 2.3 5.2 5.1s-2.3 5.1-5.2 5.1z" fill="url(#SVGID_2_)"/><linearGradient id="SVGID_3_" gradientUnits="userSpaceOnUse" x1="-108.45" y1="-108.012" x2="184.266" y2="184.704"><stop offset="0" stop-color="#d9e9ff"/><stop offset="1" stop-color="#b2cef7"/></linearGradient><path d="M89.8 44.6c.6 1.1 1.2 2.2 1.7 3.3.1.2.2.4.2.5 16.3 8.7 29.1 20.3 26.9 28.2-2.3 8.3-17.4 12.1-37 10.7h-.1c-8.3-.6-17.5-2.2-26.8-4.8-9.3-2.5-17.9-5.8-25.3-9.5-.1 0-.1-.1-.2-.1C11.6 64.1.5 53.1 2.8 44.7 5.1 36.6 22 32.9 41 34.1c1.1-.8 2.3-1.6 3.5-2.2 0 0 .1 0 .1-.1C22.4 29.7 3.2 34 .4 44.1-2.4 54.3 10.1 67 30.9 76.6c0 0 .1 0 .1.1 6.8 3.2 14.6 6 22.9 8.3 8.4 2.3 16.5 3.8 24.1 4.6h.2c22.7 2.3 39.9-2.1 42.7-12.3 2.8-9.8-11.6-23.2-31.1-32.7z" fill="url(#SVGID_3_)"/><linearGradient id="SVGID_4_" gradientUnits="userSpaceOnUse" x1="-16.787" y1="44.136" x2="75.854" y2="136.778"><stop offset="0" stop-color="#d9e9ff"/><stop offset="1" stop-color="#b2cef7"/></linearGradient><path d="M59.1 94.5c-5.7 3.9-11.6 7.4-16.9 9.7-8.5 3.6-15.6 4.7-20.7 3.3-2.1-.6-3.9-1.6-5.3-3-4.9-4.9-4.7-14.2.7-26 2.5-5.5 5.9-11.3 10.2-17.2.1-.2.2-.3.3-.5v.3c0 1.3.1 2.5.2 3.8-.1.1-.1.2-.2.3-3.3 4.9-6.1 9.7-8.2 14.2C14.4 90 14 98.5 18 102.6c4 4.1 12.5 3.8 23.3-.8 4.4-1.9 9.4-4.7 14-7.8 1.2.3 2.5.5 3.8.5z" fill="url(#SVGID_4_)"/><linearGradient id="SVGID_5_" gradientUnits="userSpaceOnUse" x1="26.4" y1=".949" x2="119.042" y2="93.59"><stop offset="0" stop-color="#d9e9ff"/><stop offset="1" stop-color="#b2cef7"/></linearGradient><path d="M107.5 35.2c-2 7.2-7.1 16.6-13.4 25.4v-1-.2c0-1-.1-2-.3-3 10.8-16.1 15.7-31.7 9.7-37.8-1.1-1.1-2.5-1.9-4.2-2.4-7.4-2-20 2.2-33.4 11.1-.3.2-.5.4-.8.5-6.7 4.5-13.7 10.1-20.3 16.6-6.7 6.7-12.6 13.6-17.3 20.5-.1-1.2-.2-2.5-.2-3.8v-.3c4.5-6.1 9.8-12.2 15.7-18 5.9-5.8 12-10.9 17.9-15.1l.9-.6C80.6 14 97.8 9.5 105.3 17c3.8 3.9 4.4 10.3 2.2 18.2z" fill="url(#SVGID_5_)"/><linearGradient id="SVGID_6_" gradientUnits="userSpaceOnUse" x1="-48.764" y1="141.4" x2="52.28" y2="242.445" gradientTransform="rotate(15.464 431.316 225.64)"><stop offset="0" stop-color="#d9e9ff"/><stop offset="1" stop-color="#b2cef7"/></linearGradient><ellipse cx="40.4" cy="103.6" rx="3.8" ry="3.8" fill="url(#SVGID_6_)"/><linearGradient id="SVGID_7_" gradientUnits="userSpaceOnUse" x1="-76.009" y1="124.574" x2="25.035" y2="225.618" gradientTransform="rotate(15.464 431.316 225.64)"><stop offset="0" stop-color="#d9e9ff"/><stop offset="1" stop-color="#b2cef7"/></linearGradient><ellipse cx="5.6" cy="57" rx="3.8" ry="3.8" fill="url(#SVGID_7_)"/><linearGradient id="SVGID_8_" gradientUnits="userSpaceOnUse" x1=".983" y1="22.616" x2="95.965" y2="117.598"><stop offset="0" stop-color="#d9e9ff"/><stop offset="1" stop-color="#b2cef7"/></linearGradient><path d="M89.3 98.4c-1.6 12.9-6.1 20.9-12.8 22.6-2 .5-4.1.5-6.2-.1-8.7-2.4-18.7-14.4-26.1-30.7 1.2.7 2.5 1.3 3.8 1.8 6.9 13.9 15.8 24.4 23 26.4 1.7.5 3.3.5 4.9.1 5.6-1.4 9.6-8.9 11-20.5.6-5 .7-10.5.3-16.4.8-1.1 1.6-2.2 2.3-3.3v.1c.5 7.2.5 14-.2 20z" fill="url(#SVGID_8_)"/><linearGradient id="SVGID_9_" gradientUnits="userSpaceOnUse" x1="22.337" y1="1.262" x2="117.319" y2="96.244"><stop offset="0" stop-color="#d9e9ff"/><stop offset="1" stop-color="#b2cef7"/></linearGradient><path d="M87.1 81.7c-.5-8.4-2-17.5-4.4-26.7-.7-2.6-1.4-5.1-2.2-7.6-.3 0-.6 0-.9-.1-2-.6-3.2-2.7-2.7-4.7.2-.8.6-1.4 1.2-1.9-1.3-3.6-2.8-7.1-4.3-10.4-.1-.3-.3-.6-.4-.9C64.9 11.8 54 .6 45.6 2.8c-8.1 2.1-12.1 19-11.3 37.8-.1.2-.3.3-.4.5-.1.2-.3.4-.4.6-.2.3-.4.5-.6.8L32 44s0 .1-.1.1C30.3 22.2 35 2.9 45 .4c2-.5 4-.5 6.2.1 8.8 2.4 18.4 14 25.9 30.8.1.3.3.6.4.9 1.1 2.5 2.1 5 3.1 7.6.4 0 .7 0 1.1.1 2 .6 3.2 2.7 2.7 4.7-.2.9-.8 1.5-1.4 2 .8 2.5 1.5 5.1 2.2 7.7 2.2 8.2 3.6 16.3 4.2 24-.7 1.2-1.5 2.3-2.3 3.4z" fill="url(#SVGID_9_)"/></svg>