<svg version="1.1" id="Layer_1" xmlns="http://www.w3.org/2000/svg" x="0" y="0" viewBox="0 0 121.4 121.4" xml:space="preserve"><style>.st6{fill:#fff}</style><linearGradient id="SVGID_1_" gradientUnits="userSpaceOnUse" x1="38.608" y1="-13.322" x2="139.115" y2="87.185"><stop offset="0" stop-color="#b4d3fd"/><stop offset="1" stop-color="#84b0f3"/></linearGradient><path d="M53.2 10h15.1c1.1 0 1.6-1.3.9-2.1L61.7.4c-.5-.5-1.3-.5-1.7 0l-7.5 7.5c-1 .8-.4 2.1.7 2.1z" fill="url(#SVGID_1_)"/><linearGradient id="SVGID_2_" gradientUnits="userSpaceOnUse" x1="-13.322" y1="38.608" x2="87.185" y2="139.115"><stop offset="0" stop-color="#b4d3fd"/><stop offset="1" stop-color="#84b0f3"/></linearGradient><path d="M53.2 111.4h15.1c1.1 0 1.6 1.3.9 2.1l-7.5 7.5c-.5.5-1.3.5-1.7 0l-7.5-7.5c-1-.8-.4-2.1.7-2.1z" fill="url(#SVGID_2_)"/><linearGradient id="SVGID_3_" gradientUnits="userSpaceOnUse" x1="38.608" y1="-13.322" x2="139.115" y2="87.185"><stop offset="0" stop-color="#b4d3fd"/><stop offset="1" stop-color="#84b0f3"/></linearGradient><path d="M111.4 53.2v15.1c0 1.1 1.3 1.6 2.1.9l7.5-7.5c.5-.5.5-1.3 0-1.7l-7.5-7.5c-.8-1-2.1-.4-2.1.7z" fill="url(#SVGID_3_)"/><linearGradient id="SVGID_4_" gradientUnits="userSpaceOnUse" x1="-13.322" y1="38.608" x2="87.185" y2="139.115"><stop offset="0" stop-color="#b4d3fd"/><stop offset="1" stop-color="#84b0f3"/></linearGradient><path d="M10 53.2v15.1c0 1.1-1.3 1.6-2.1.9L.4 61.7c-.5-.5-.5-1.3 0-1.7l7.5-7.5c.8-1 2.1-.4 2.1.7z" fill="url(#SVGID_4_)"/><linearGradient id="SVGID_5_" gradientUnits="userSpaceOnUse" x1="30.672" y1="30.605" x2="90.857" y2="90.79"><stop offset="0" stop-color="#b2d3fd"/><stop offset="1" stop-color="#83b0f3"/></linearGradient><path d="M103.2 60.7c0 1.4-.1 2.8-.2 4.1 0 .4-.1.7-.1 1.1-2.5 21-20.5 37.3-42.2 37.3-21.7 0-39.6-16.3-42.2-37.3 0-.4-.1-.7-.1-1.1-.1-1.3-.2-2.7-.2-4.1 0-1.8.1-3.5.3-5.1.1-.5.1-.9.2-1.4 3.1-20.3 20.8-36 42-36s38.8 15.6 42 36c.1.5.1.9.2 1.4.2 1.6.3 3.3.3 5.1z" opacity=".22" fill="url(#SVGID_5_)"/><linearGradient id="SVGID_6_" gradientUnits="userSpaceOnUse" x1="37.064" y1="37.001" x2="84.44" y2="84.377"><stop offset="0" stop-color="#b4d3fd"/><stop offset="1" stop-color="#84b0f3"/></linearGradient><path d="M94.2 60.7c0 1.4-.1 2.8-.2 4.1-2 16.5-16.1 29.4-33.2 29.4S29.6 81.4 27.6 64.8c-.2-1.3-.2-2.7-.2-4.1 0-1.8.1-3.5.4-5.1 2.5-16 16.3-28.3 33-28.3s30.6 12.3 33.1 28.3c.1 1.6.3 3.3.3 5.1z" fill="url(#SVGID_6_)"/><path class="st6" d="M103.2 60.7c0 1.4-.1 2.8-.2 4.1H18.4c-.1-1.3-.2-2.7-.2-4.1 0-1.8.1-3.5.3-5.1h84.4c.2 1.6.3 3.3.3 5.1z"/><circle class="st6" cx="60.7" cy="60.7" r="17.8"/><linearGradient id="SVGID_7_" gradientUnits="userSpaceOnUse" x1="33.14" y1="41.406" x2="80.041" y2="88.307"><stop offset="0" stop-color="#b2d3fd"/><stop offset="1" stop-color="#83b0f3"/></linearGradient><circle cx="52.2" cy="60.5" r="2.9" fill="url(#SVGID_7_)"/><linearGradient id="SVGID_8_" gradientUnits="userSpaceOnUse" x1="37.384" y1="37.162" x2="84.285" y2="84.063"><stop offset="0" stop-color="#b2d3fd"/><stop offset="1" stop-color="#83b0f3"/></linearGradient><circle cx="60.7" cy="60.5" r="2.9" fill="url(#SVGID_8_)"/><linearGradient id="SVGID_9_" gradientUnits="userSpaceOnUse" x1="41.628" y1="32.918" x2="88.529" y2="79.819"><stop offset="0" stop-color="#b2d3fd"/><stop offset="1" stop-color="#83b0f3"/></linearGradient><circle cx="69.2" cy="60.5" r="2.9" fill="url(#SVGID_9_)"/></svg>