<svg version="1.1" id="Layer_1" xmlns="http://www.w3.org/2000/svg" x="0" y="0" viewBox="0 0 121.3 121.4" xml:space="preserve"><style>.st1{fill:#fff}</style><linearGradient id="SVGID_1_" gradientUnits="userSpaceOnUse" x1="37.157" y1="37.195" x2="84.534" y2="84.571"><stop offset="0" stop-color="#b4d3fd"/><stop offset="1" stop-color="#84b0f3"/></linearGradient><path d="M94.3 60.8c0 1.4-.1 2.8-.2 4.1-2 16.5-16.1 29.4-33.2 29.4S29.7 81.5 27.7 64.9c-.2-1.3-.2-2.7-.2-4.1 0-1.8.1-3.5.4-5.1 2.5-16 16.3-28.3 33-28.3S91.5 39.7 94 55.7c.1 1.7.3 3.4.3 5.1z" fill="url(#SVGID_1_)"/><path class="st1" d="M94.3 60.8c0 1.4-.1 2.8-.2 4.1H27.6c-.2-1.3-.2-2.7-.2-4.1 0-1.8.1-3.5.4-5.1h66.1c.2 1.7.4 3.4.4 5.1z"/><circle class="st1" cx="60.8" cy="60.8" r="17.8"/><linearGradient id="SVGID_2_" gradientUnits="userSpaceOnUse" x1="52.875" y1=".376" x2="68.892" y2="16.393"><stop offset="0" stop-color="#b7d5fd"/><stop offset="1" stop-color="#88b2f3"/></linearGradient><path d="M67.6 16.4H53.8c-.7 0-1.3-.6-1.3-1.3V1.3c0-.7.6-1.3 1.3-1.3h13.8c.7 0 1.3.6 1.3 1.3v13.8c0 .7-.6 1.3-1.3 1.3z" fill="url(#SVGID_2_)"/><linearGradient id="SVGID_3_" gradientUnits="userSpaceOnUse" x1="58.281" y1="5.178" x2="62.922" y2="9.819"><stop offset="0" stop-color="#fafcff"/><stop offset="1" stop-color="#e1f1ff"/></linearGradient><path d="M61.2 4h-1c-.2 0-.5.1-.6.3-.4.5-1.3 1.4-2.2 1.3-.3 0-.5.2-.5.5.2 3.7 2.3 5.9 3.3 6.7.3.2.7.2 1 0 1-.8 3.1-3 3.3-6.7 0-.3-.2-.5-.5-.5-.9.1-1.8-.8-2.2-1.3-.1-.2-.4-.3-.6-.3z" opacity=".45" fill="url(#SVGID_3_)"/><linearGradient id="SVGID_4_" gradientUnits="userSpaceOnUse" x1="99.583" y1="37.64" x2="121.326" y2="37.64"><stop offset="0" stop-color="#b7d5fd"/><stop offset="1" stop-color="#88b2f3"/></linearGradient><path d="M119.6 48.5h-18.3c-.9 0-1.7-.8-1.7-1.7V28.5c0-.9.8-1.7 1.7-1.7h18.3c.9 0 1.7.8 1.7 1.7v18.3c0 .9-.7 1.7-1.7 1.7z" fill="url(#SVGID_4_)"/><linearGradient id="SVGID_5_" gradientUnits="userSpaceOnUse" x1="104.776" y1="31.961" x2="115.333" y2="42.519"><stop offset="0" stop-color="#fafcff"/><stop offset="1" stop-color="#e1f1ff"/></linearGradient><circle cx="110.5" cy="37.6" r="8.1" opacity=".7" fill="url(#SVGID_5_)"/><linearGradient id="SVGID_6_" gradientUnits="userSpaceOnUse" x1="107.256" y1="33.64" x2="113.415" y2="39.799"><stop offset="0" stop-color="#b7d5fd"/><stop offset="1" stop-color="#88b2f3"/></linearGradient><path d="M111.1 32h-1.4c-.3 0-.6.1-.8.4-.5.6-1.7 1.8-2.9 1.7-.4-.1-.7.3-.7.7.3 4.9 3.1 7.8 4.4 8.8.4.3 1 .3 1.4 0 1.3-1.1 4.1-3.9 4.4-8.8 0-.4-.3-.7-.7-.7-1.2.2-2.4-1-2.9-1.7-.2-.2-.4-.4-.8-.4z" fill="url(#SVGID_6_)"/><g><linearGradient id="SVGID_7_" gradientUnits="userSpaceOnUse" x1="0" y1="37.64" x2="21.744" y2="37.64"><stop offset="0" stop-color="#b7d5fd"/><stop offset="1" stop-color="#88b2f3"/></linearGradient><path d="M20 48.5H1.7c-.9 0-1.7-.8-1.7-1.7V28.5c0-.9.8-1.7 1.7-1.7H20c.9 0 1.7.8 1.7 1.7v18.3c0 .9-.7 1.7-1.7 1.7z" fill="url(#SVGID_7_)"/><linearGradient id="SVGID_8_" gradientUnits="userSpaceOnUse" x1="5.193" y1="31.961" x2="15.751" y2="42.519"><stop offset="0" stop-color="#fafcff"/><stop offset="1" stop-color="#e1f1ff"/></linearGradient><circle cx="10.9" cy="37.6" r="8.1" opacity=".7" fill="url(#SVGID_8_)"/><linearGradient id="SVGID_9_" gradientUnits="userSpaceOnUse" x1="7.674" y1="33.64" x2="13.833" y2="39.799"><stop offset="0" stop-color="#b7d5fd"/><stop offset="1" stop-color="#88b2f3"/></linearGradient><path d="M11.6 32h-1.4c-.3 0-.6.1-.8.4-.5.6-1.7 1.8-2.9 1.7-.4-.1-.7.3-.7.7.3 4.9 3.1 7.8 4.4 8.8.4.3 1 .3 1.4 0 1.3-1.1 4.1-3.9 4.4-8.8 0-.4-.3-.7-.7-.7-1.2.2-2.4-1-2.9-1.7-.2-.2-.5-.4-.8-.4z" fill="url(#SVGID_9_)"/></g><g><linearGradient id="SVGID_10_" gradientUnits="userSpaceOnUse" x1="45.219" y1="89.694" x2="76.923" y2="121.398"><stop offset="0" stop-color="#89b6f5"/><stop offset="1" stop-color="#6a9cec"/></linearGradient><path d="M74.4 121.4H47c-1.4 0-2.5-1.1-2.5-2.5V91.5c0-1.4 1.1-2.5 2.5-2.5h27.3c1.4 0 2.5 1.1 2.5 2.5v27.3c.1 1.4-1 2.6-2.4 2.6z" fill="url(#SVGID_10_)"/><linearGradient id="SVGID_11_" gradientUnits="userSpaceOnUse" x1="52.221" y1="96.695" x2="67.969" y2="112.443"><stop offset="0" stop-color="#eff9ff"/><stop offset="1" stop-color="#b3d5fc"/></linearGradient><circle cx="60.7" cy="105.2" r="12.1" fill="url(#SVGID_11_)"/><linearGradient id="SVGID_12_" gradientUnits="userSpaceOnUse" x1="53.075" y1="105.6" x2="68.307" y2="105.6"><stop offset="0" stop-color="#89b6f5"/><stop offset="1" stop-color="#6a9cec"/></linearGradient><path d="M61.7 96.8h-2.1c-.5 0-.9.2-1.2.6-.8.9-2.6 2.7-4.3 2.5-.6-.1-1.1.4-1 1 .5 7.3 4.6 11.6 6.6 13.2.6.5 1.4.5 2 0 2-1.6 6.1-5.8 6.6-13.2 0-.6-.5-1.1-1-1-1.8.3-3.5-1.5-4.3-2.5-.4-.4-.8-.6-1.3-.6z" fill="url(#SVGID_12_)"/></g><linearGradient id="SVGID_13_" gradientUnits="userSpaceOnUse" x1="60.681" y1="54.916" x2="60.681" y2="104.171"><stop offset="0" stop-color="#fff"/><stop offset="1" stop-color="#fff" stop-opacity="0"/></linearGradient><path d="M93.5 110.5H27.8L51 57.4l.6-1.4v-.1c1.2-2.3 3.3-4.1 6-4.9 4.6-1.4 9.4.5 11.8 4.4 0 .1.1.1.1.2l.4.7c0 .1.1.1.1.2l.2.5 23.3 53.5z" fill="url(#SVGID_13_)"/><linearGradient id="SVGID_14_" gradientUnits="userSpaceOnUse" x1="53.298" y1="53.335" x2="67.859" y2="67.896"><stop offset="0" stop-color="#b4d3fd"/><stop offset="1" stop-color="#84b0f3"/></linearGradient><circle cx="60.8" cy="60.8" r="10.3" fill="url(#SVGID_14_)"/></svg>