<svg version="1.1" id="Layer_1" xmlns="http://www.w3.org/2000/svg" x="0" y="0" viewBox="0 0 121.3 121.3" xml:space="preserve"><style>.st17{fill:#fff}</style><linearGradient id="SVGID_1_" gradientUnits="userSpaceOnUse" x1="23.375" y1="-28.527" x2="118.901" y2="67"><stop offset="0" stop-color="#b2d3fd"/><stop offset="1" stop-color="#83b0f3"/></linearGradient><path d="M120.2 55.4h-28c-.6 0-1.1-.5-1.1-1.1 0-.6.5-1.1 1.1-1.1h28c.6 0 1.1.5 1.1 1.1 0 .6-.5 1.1-1.1 1.1z" fill="url(#SVGID_1_)"/><linearGradient id="SVGID_2_" gradientUnits="userSpaceOnUse" x1="17.681" y1="-22.832" x2="113.207" y2="72.694"><stop offset="0" stop-color="#b2d3fd"/><stop offset="1" stop-color="#83b0f3"/></linearGradient><path d="M120.2 66.9H92.3c-.6 0-1.1-.5-1.1-1.1 0-.6.5-1.1 1.1-1.1h27.9c.6 0 1.1.5 1.1 1.1 0 .6-.5 1.1-1.1 1.1z" fill="url(#SVGID_2_)"/><linearGradient id="SVGID_3_" gradientUnits="userSpaceOnUse" x1="-22.14" y1="16.989" x2="73.386" y2="112.515"><stop offset="0" stop-color="#b2d3fd"/><stop offset="1" stop-color="#83b0f3"/></linearGradient><path d="M29.2 55.4h-28c-.6 0-1.1-.5-1.1-1.1 0-.6.5-1.1 1.1-1.1h28c.6 0 1.1.5 1.1 1.1 0 .6-.5 1.1-1.1 1.1z" fill="url(#SVGID_3_)"/><linearGradient id="SVGID_4_" gradientUnits="userSpaceOnUse" x1="-27.835" y1="22.683" x2="67.692" y2="118.21"><stop offset="0" stop-color="#b2d3fd"/><stop offset="1" stop-color="#83b0f3"/></linearGradient><path d="M29.2 66.9H1.3c-.6 0-1.1-.5-1.1-1.1 0-.6.5-1.1 1.1-1.1h27.9c.6 0 1.1.5 1.1 1.1 0 .6-.5 1.1-1.1 1.1z" fill="url(#SVGID_4_)"/><linearGradient id="SVGID_5_" gradientUnits="userSpaceOnUse" x1="195.55" y1="60.007" x2="223.176" y2="60.007" gradientTransform="matrix(-1 0 0 1 315.441 0)"><stop offset="0" stop-color="#d5e8fd" stop-opacity="0"/><stop offset="1" stop-color="#6ea9f9"/></linearGradient><path opacity=".62" fill="url(#SVGID_5_)" d="M91.2 55.4h29.1v9.2H91.2z"/><linearGradient id="SVGID_6_" gradientUnits="userSpaceOnUse" x1="498.406" y1="60.007" x2="526.695" y2="60.007" gradientTransform="translate(-497.392)"><stop offset="0" stop-color="#d5e8fd" stop-opacity="0"/><stop offset="1" stop-color="#6ea9f9"/></linearGradient><path opacity=".62" fill="url(#SVGID_6_)" d="M.7 55.4h29.8v9.2H.7z"/><linearGradient id="SVGID_7_" gradientUnits="userSpaceOnUse" x1="271.834" y1="-296.182" x2="251.291" y2="-296.182" gradientTransform="rotate(-90 314.883 -41.62)"><stop offset="0" stop-color="#d5e8fd" stop-opacity="0"/><stop offset="1" stop-color="#6ea9f9"/></linearGradient><path opacity=".62" fill="url(#SVGID_7_)" d="M54.7.5h11.2v29.6H54.7z"/><linearGradient id="SVGID_8_" gradientUnits="userSpaceOnUse" x1="385.83" y1="-296.251" x2="364.881" y2="-296.251" gradientTransform="matrix(0 1 1 0 356.502 -266.225)"><stop offset="0" stop-color="#d5e8fd" stop-opacity="0"/><stop offset="1" stop-color="#6ea9f9"/></linearGradient><path opacity=".62" fill="url(#SVGID_8_)" d="M54.7 90.4h11.1v30.2H54.7z"/><linearGradient id="SVGID_9_" gradientUnits="userSpaceOnUse" x1="5.847" y1="-33.249" x2="130.378" y2="91.282"><stop offset="0" stop-color="#b2d3fd"/><stop offset="1" stop-color="#83b0f3"/></linearGradient><path d="M55.4 1.1v28c0 .6-.5 1.1-1.1 1.1-.6 0-1.1-.5-1.1-1.1v-28c0-.6.5-1.1 1.1-1.1.6 0 1.1.5 1.1 1.1z" fill="url(#SVGID_9_)"/><linearGradient id="SVGID_10_" gradientUnits="userSpaceOnUse" x1="11.987" y1="-39.388" x2="136.517" y2="85.142"><stop offset="0" stop-color="#b2d3fd"/><stop offset="1" stop-color="#83b0f3"/></linearGradient><path d="M67.6 1.1V29c0 .6-.5 1.1-1.1 1.1-.6 0-1.1-.5-1.1-1.1V1.1c0-.6.5-1.1 1.1-1.1.6 0 1.1.5 1.1 1.1z" fill="url(#SVGID_10_)"/><linearGradient id="SVGID_11_" gradientUnits="userSpaceOnUse" x1="-44.293" y1="7.642" x2="51.233" y2="103.168"><stop offset="0" stop-color="#b2d3fd"/><stop offset="1" stop-color="#83b0f3"/></linearGradient><path d="M55.4 92.2v28c0 .6-.5 1.1-1.1 1.1-.6 0-1.1-.5-1.1-1.1v-28c0-.6.5-1.1 1.1-1.1.6-.1 1.1.4 1.1 1.1z" fill="url(#SVGID_11_)"/><linearGradient id="SVGID_12_" gradientUnits="userSpaceOnUse" x1="-34.778" y1="4.877" x2="60.748" y2="100.403"><stop offset="0" stop-color="#b2d3fd"/><stop offset=".48" stop-color="#8fb9f6"/><stop offset="1" stop-color="#83b0f3"/></linearGradient><path d="M67.6 92.2v27.9c0 .6-.5 1.1-1.1 1.1-.6 0-1.1-.5-1.1-1.1V92.2c0-.6.5-1.1 1.1-1.1.6-.1 1.1.4 1.1 1.1z" fill="url(#SVGID_12_)"/><linearGradient id="SVGID_13_" gradientUnits="userSpaceOnUse" x1="4.13" y1="37.302" x2="64.169" y2="97.341"><stop offset="0" stop-color="#b2d3fd"/><stop offset="1" stop-color="#83b0f3"/></linearGradient><path d="M68.6 91.6c0 10.7-17 10.2-17 0h17z" fill="url(#SVGID_13_)"/><linearGradient id="SVGID_14_" gradientUnits="userSpaceOnUse" x1="37.116" y1="4.816" x2="97.155" y2="64.855"><stop offset="0" stop-color="#b2d3fd"/><stop offset="1" stop-color="#83b0f3"/></linearGradient><path d="M68.6 29.4c0-10.7-17-10.2-17 0h17z" fill="url(#SVGID_14_)"/><linearGradient id="SVGID_15_" gradientUnits="userSpaceOnUse" x1="7.593" y1="40.839" x2="67.632" y2="100.878"><stop offset="0" stop-color="#b2d3fd"/><stop offset="1" stop-color="#83b0f3"/></linearGradient><path d="M29 69c-10.7 0-10.2-17 0-17v17z" fill="url(#SVGID_15_)"/><linearGradient id="SVGID_16_" gradientUnits="userSpaceOnUse" x1="42.205" y1="9.977" x2="102.244" y2="70.016"><stop offset="0" stop-color="#b2d3fd"/><stop offset="1" stop-color="#83b0f3"/></linearGradient><path d="M91.2 69c10.7 0 10.2-17 0-17v17z" fill="url(#SVGID_16_)"/><linearGradient id="SVGID_17_" gradientUnits="userSpaceOnUse" x1="36.412" y1="37.04" x2="83.788" y2="84.416"><stop offset="0" stop-color="#b4d3fd"/><stop offset="1" stop-color="#84b0f3"/></linearGradient><path d="M93.5 60.7c0 1.4-.1 2.8-.2 4.1-2 16.5-16.1 29.4-33.2 29.4S28.9 81.4 26.9 64.8c-.2-1.3-.2-2.7-.2-4.1 0-1.8.1-3.5.4-5.2 2.5-16 16.3-28.3 33-28.3s30.6 12.3 33 28.3c.3 1.7.4 3.4.4 5.2z" fill="url(#SVGID_17_)"/><path class="st17" d="M93.5 60.7c0 1.4-.1 2.8-.2 4.1H26.9c-.2-1.3-.2-2.7-.2-4.1 0-1.8.1-3.5.4-5.2h66.1c.2 1.7.3 3.4.3 5.2z"/><circle class="st17" cx="60.1" cy="60.7" r="17.8"/><g><linearGradient id="SVGID_18_" gradientUnits="userSpaceOnUse" x1="33.522" y1="40.41" x2="79.157" y2="86.044"><stop offset="0" stop-color="#84b4f5"/><stop offset="1" stop-color="#669aec"/></linearGradient><path d="M53.6 69.2c-.3 0-.6-.1-.8-.4L46.2 61l7-8.3c.4-.4 1-.5 1.5-.1.4.4.5 1 .1 1.5l-5.9 7 5.5 6.5c.4.4.3 1.1-.1 1.5-.2 0-.5.1-.7.1z" fill="url(#SVGID_18_)"/><linearGradient id="SVGID_19_" gradientUnits="userSpaceOnUse" x1="39.779" y1="34.153" x2="85.413" y2="79.787"><stop offset="0" stop-color="#84b4f5"/><stop offset="1" stop-color="#669aec"/></linearGradient><path d="M66.5 69.2c-.2 0-.5-.1-.7-.2-.4-.4-.5-1-.1-1.5l5.5-6.5-5.9-7c-.4-.4-.3-1.1.1-1.5.4-.4 1.1-.3 1.5.1l7 8.3-6.6 7.8c-.2.3-.5.5-.8.5z" fill="url(#SVGID_19_)"/><g><linearGradient id="SVGID_20_" gradientUnits="userSpaceOnUse" x1="36.507" y1="37.425" x2="82.141" y2="83.059"><stop offset="0" stop-color="#84b4f5"/><stop offset="1" stop-color="#669aec"/></linearGradient><path d="M57.8 71.1h-.2c-.6-.1-.9-.7-.8-1.2l3.9-18.7c.1-.6.7-.9 1.2-.8.6.1.9.7.8 1.2l-3.9 18.7c-.1.4-.5.8-1 .8z" fill="url(#SVGID_20_)"/></g></g></svg>