<svg version="1.1" id="Layer_1" xmlns="http://www.w3.org/2000/svg" x="0" y="0" viewBox="0 0 121.4 121.4" xml:space="preserve"><style>.st13{fill:#fff}</style><linearGradient id="SVGID_1_" gradientUnits="userSpaceOnUse" x1="-15.215" y1="38.231" x2="78.135" y2="142.648"><stop offset="0" stop-color="#b7d5fd"/><stop offset="1" stop-color="#88b2f3"/></linearGradient><circle cx="4.9" cy="60.7" r="4.9" fill="url(#SVGID_1_)"/><linearGradient id="SVGID_2_" gradientUnits="userSpaceOnUse" x1="43.552" y1="-14.307" x2="136.901" y2="90.11"><stop offset="0" stop-color="#b7d5fd"/><stop offset="1" stop-color="#88b2f3"/></linearGradient><circle cx="60.7" cy="4.9" r="4.9" fill="url(#SVGID_2_)"/><linearGradient id="SVGID_3_" gradientUnits="userSpaceOnUse" x1="-11.926" y1="35.291" x2="81.424" y2="139.708"><stop offset="0" stop-color="#b7d5fd"/><stop offset="1" stop-color="#88b2f3"/></linearGradient><circle cx="60.7" cy="116.5" r="4.9" fill="url(#SVGID_3_)"/><linearGradient id="SVGID_4_" gradientUnits="userSpaceOnUse" x1="46.84" y1="-17.247" x2="140.19" y2="87.17"><stop offset="0" stop-color="#b7d5fd"/><stop offset="1" stop-color="#88b2f3"/></linearGradient><circle cx="116.5" cy="60.7" r="4.9" fill="url(#SVGID_4_)"/><linearGradient id="SVGID_5_" gradientUnits="userSpaceOnUse" x1="56.553" y1="-25.93" x2="149.903" y2="78.487"><stop offset="0" stop-color="#b7d5fd"/><stop offset="1" stop-color="#88b2f3"/></linearGradient><circle cx="109" cy="32.8" r="2.4" fill="url(#SVGID_5_)"/><linearGradient id="SVGID_6_" gradientUnits="userSpaceOnUse" x1="-24.927" y1="46.914" x2="68.423" y2="151.331"><stop offset="0" stop-color="#b7d5fd"/><stop offset="1" stop-color="#88b2f3"/></linearGradient><circle cx="12.3" cy="88.6" r="2.4" fill="url(#SVGID_6_)"/><linearGradient id="SVGID_7_" gradientUnits="userSpaceOnUse" x1="55.349" y1="-24.854" x2="148.699" y2="79.563"><stop offset="0" stop-color="#b7d5fd"/><stop offset="1" stop-color="#88b2f3"/></linearGradient><circle cx="88.6" cy="12.3" r="2.4" fill="url(#SVGID_7_)"/><linearGradient id="SVGID_8_" gradientUnits="userSpaceOnUse" x1="-23.723" y1="45.838" x2="69.626" y2="150.255"><stop offset="0" stop-color="#b7d5fd"/><stop offset="1" stop-color="#88b2f3"/></linearGradient><circle cx="32.8" cy="109" r="2.4" fill="url(#SVGID_8_)"/><linearGradient id="SVGID_9_" gradientUnits="userSpaceOnUse" x1="24.322" y1="2.885" x2="117.671" y2="107.302"><stop offset="0" stop-color="#b7d5fd"/><stop offset="1" stop-color="#88b2f3"/></linearGradient><circle cx="32.8" cy="12.3" r="2.4" fill="url(#SVGID_9_)"/><linearGradient id="SVGID_10_" gradientUnits="userSpaceOnUse" x1="7.304" y1="18.099" x2="100.654" y2="122.516"><stop offset="0" stop-color="#b7d5fd"/><stop offset="1" stop-color="#88b2f3"/></linearGradient><circle cx="88.6" cy="109" r="2.4" fill="url(#SVGID_10_)"/><linearGradient id="SVGID_11_" gradientUnits="userSpaceOnUse" x1="2.812" y1="22.115" x2="96.161" y2="126.532"><stop offset="0" stop-color="#b7d5fd"/><stop offset="1" stop-color="#88b2f3"/></linearGradient><circle cx="12.3" cy="32.8" r="2.4" fill="url(#SVGID_11_)"/><linearGradient id="SVGID_12_" gradientUnits="userSpaceOnUse" x1="28.814" y1="-1.131" x2="122.164" y2="103.286"><stop offset="0" stop-color="#b7d5fd"/><stop offset="1" stop-color="#88b2f3"/></linearGradient><circle cx="109" cy="88.6" r="2.4" fill="url(#SVGID_12_)"/><g><linearGradient id="SVGID_13_" gradientUnits="userSpaceOnUse" x1="37.042" y1="37.195" x2="84.418" y2="84.571"><stop offset="0" stop-color="#b4d3fd"/><stop offset="1" stop-color="#84b0f3"/></linearGradient><path d="M94.1 60.8c0 1.4-.1 2.8-.2 4.1-2 16.5-16.1 29.4-33.2 29.4S29.5 81.5 27.5 64.9c-.2-1.3-.2-2.7-.2-4.1 0-1.8.1-3.5.4-5.1 2.5-16 16.3-28.3 33-28.3s30.6 12.3 33 28.3c.3 1.7.4 3.4.4 5.1z" fill="url(#SVGID_13_)"/><path class="st13" d="M94.1 60.8c0 1.4-.1 2.8-.2 4.1H27.5c-.2-1.3-.2-2.7-.2-4.1 0-1.8.1-3.5.4-5.1h66.1c.2 1.7.3 3.4.3 5.1z"/><circle class="st13" cx="60.7" cy="60.8" r="17.8"/><linearGradient id="SVGID_14_" gradientUnits="userSpaceOnUse" x1="45.919" y1="68.184" x2="75.257" y2="68.184"><stop offset="0" stop-color="#b2d3fd"/><stop offset="1" stop-color="#83b0f3"/></linearGradient><path d="M75.3 60.8c0 8.1-6.6 14.7-14.7 14.7s-14.7-6.6-14.7-14.7h29.4z" opacity=".8" fill="url(#SVGID_14_)"/><g><linearGradient id="SVGID_15_" gradientUnits="userSpaceOnUse" x1="29.905" y1="23.225" x2="52.266" y2="45.586"><stop offset="0" stop-color="#84b4f5"/><stop offset="1" stop-color="#669aec"/></linearGradient><path d="M60.6 61.7c-.5 0-.9-.4-.9-.9V47c0-.5.4-.9.9-.9s.9.4.9.9v13.9c-.1.4-.4.8-.9.8z" fill="url(#SVGID_15_)"/><linearGradient id="SVGID_16_" gradientUnits="userSpaceOnUse" x1="28.896" y1="24.234" x2="51.257" y2="46.595"><stop offset="0" stop-color="#84b4f5"/><stop offset="1" stop-color="#669aec"/></linearGradient><path d="M70.4 61.7h-9.8c-.5 0-.9-.4-.9-.9s.4-.9.9-.9h9.8c.5 0 .9.4.9.9s-.4.9-.9.9z" fill="url(#SVGID_16_)"/><linearGradient id="SVGID_17_" gradientUnits="userSpaceOnUse" x1="26.541" y1="26.589" x2="48.902" y2="48.95"><stop offset="0" stop-color="#84b4f5"/><stop offset="1" stop-color="#669aec"/></linearGradient><circle cx="60.7" cy="60.7" r="1.6" fill="url(#SVGID_17_)"/></g></g></svg>